<svg width="512" height="512" viewBox="0 0 24 24" fill="none" xmlns="http://www.w3.org/2000/svg">
    <path d="M12 21.35l-1.45-1.32C5.4 15.36 2 12.28 2 8.5 2 5.42 4.42 3 7.5 3c1.74 0 3.41.81 4.5 2.09C13.09 3.81 14.76 3 16.5 3 19.58 3 22 5.42 22 8.5c0 3.78-3.4 6.86-8.55 11.54L12 21.35z"
          fill="#003366" fill-opacity="0.9"/>

    <path d="M16.5 6C15.3 6 14.2 6.5 13.4 7.3L12 8.7L10.6 7.3C9.8 6.5 8.7 6 7.5 6C5.5 6 4 7.5 4 9.5C4 11.1 4.9 13.1 6.9 15.2L12 20L17.1 15.2C19.1 13.1 20 11.1 20 9.5C20 7.5 18.5 6 16.5 6Z"
          fill="#66cc66" fill-opacity="0.8"/>

    <path d="M12 11C11.4477 11 11 10.5523 11 10C11 9.44772 11.4477 9 12 9C12.5523 9 13 9.44772 13 10C13 10.5523 12.5523 11 12 11Z"
          fill="white"/>
</svg>